<svg width="980" height="260" viewBox="0 0 980 260" fill="none" xmlns="http://www.w3.org/2000/svg">
  <defs>
    <linearGradient id="g" x1="36" y1="22" x2="250" y2="238" gradientUnits="userSpaceOnUse">
      <stop stop-color="#FF2FAE"/>
      <stop offset="1" stop-color="#1EDCFF"/>
    </linearGradient>
    <linearGradient id="t" x1="308" y1="32" x2="730" y2="232" gradientUnits="userSpaceOnUse">
      <stop stop-color="#FFD4F1"/>
      <stop offset="1" stop-color="#CCF8FF"/>
    </linearGradient>
  </defs>

  <rect x="20" y="20" width="220" height="220" rx="64" fill="#0A061B"/>
  <rect x="34" y="34" width="192" height="192" rx="56" stroke="url(#g)" stroke-width="8"/>
  <circle cx="130" cy="130" r="58" fill="#120B35" stroke="url(#g)" stroke-width="6"/>
  <path d="M110 89H139C157 89 170 102 170 118C170 133 158 145 142 147L175 178H153L123 149H110V178H93V89H110ZM110 134H137C146 134 153 127 153 119C153 110 146 103 137 103H110V134Z" fill="url(#g)"/>

  <text x="284" y="122" fill="url(#t)" font-family="Inter, Segoe UI, Arial, sans-serif" font-size="88" font-weight="800">pBTC</text>
  <text x="286" y="170" fill="#BA9CFF" font-family="Inter, Segoe UI, Arial, sans-serif" font-size="30" font-weight="600" letter-spacing="1.2">PULSECHAIN BRIDGE</text>
  <rect x="286" y="187" width="440" height="7" rx="3.5" fill="url(#g)"/>
</svg>
