<svg width="1200" height="630" viewBox="0 0 1200 630" fill="none" xmlns="http://www.w3.org/2000/svg">
  <defs>
    <linearGradient id="bg" x1="0" y1="0" x2="1200" y2="630" gradientUnits="userSpaceOnUse">
      <stop stop-color="#1A0737"/>
      <stop offset="1" stop-color="#060313"/>
    </linearGradient>
    <radialGradient id="r1" cx="0" cy="0" r="1" gradientUnits="userSpaceOnUse" gradientTransform="translate(220 130) rotate(20) scale(360 240)">
      <stop stop-color="#FF2FAE" stop-opacity="0.45"/>
      <stop offset="1" stop-color="#FF2FAE" stop-opacity="0"/>
    </radialGradient>
    <radialGradient id="r2" cx="0" cy="0" r="1" gradientUnits="userSpaceOnUse" gradientTransform="translate(950 520) rotate(-20) scale(420 240)">
      <stop stop-color="#1EDCFF" stop-opacity="0.38"/>
      <stop offset="1" stop-color="#1EDCFF" stop-opacity="0"/>
    </radialGradient>
    <linearGradient id="accent" x1="96" y1="90" x2="532" y2="530" gradientUnits="userSpaceOnUse">
      <stop stop-color="#FF2FAE"/>
      <stop offset="1" stop-color="#1EDCFF"/>
    </linearGradient>
  </defs>

  <rect width="1200" height="630" fill="url(#bg)"/>
  <ellipse cx="220" cy="130" rx="360" ry="240" fill="url(#r1)"/>
  <ellipse cx="950" cy="520" rx="420" ry="240" fill="url(#r2)"/>

  <rect x="90" y="88" width="440" height="440" rx="120" fill="#0A061B"/>
  <rect x="116" y="114" width="388" height="388" rx="104" stroke="url(#accent)" stroke-width="12"/>
  <circle cx="310" cy="308" r="120" fill="#120B35" stroke="url(#accent)" stroke-width="10"/>
  <path d="M264 241H325C360 241 386 266 386 298C386 329 363 352 331 355L393 414H351L294 360H264V414H230V241H264ZM264 332H322C339 332 354 319 354 301C354 283 340 270 322 270H264V332Z" fill="url(#accent)"/>

  <text x="584" y="278" fill="#FCE8FF" font-family="Inter, Segoe UI, Arial, sans-serif" font-size="128" font-weight="800">pBTC</text>
  <text x="584" y="340" fill="#BBA7FF" font-family="Inter, Segoe UI, Arial, sans-serif" font-size="40" font-weight="600">PULSECHAIN BRIDGED BITCOIN</text>
  <rect x="584" y="372" width="500" height="9" rx="4.5" fill="url(#accent)"/>
  <text x="584" y="430" fill="#DCEFFF" font-family="Inter, Segoe UI, Arial, sans-serif" font-size="34" font-weight="500">FUTURISTIC • TRANSPARENT • TRUST-FOCUSED</text>
</svg>
